<svg width="20" height="20" viewBox="0 0 20 20" fill="none" xmlns="http://www.w3.org/2000/svg">
<path fill-rule="evenodd" clip-rule="evenodd" d="M5.54699 1.66744C6.47782 1.67994 7.14116 2.37744 7.98032 3.25994C8.18782 3.47744 8.41199 3.71494 8.66282 3.96494C9.87866 5.18161 9.53282 6.17411 9.25366 6.97078C8.95032 7.83994 8.68782 8.58994 10.2595 10.1616C11.8312 11.7333 12.5803 11.4708 13.4487 11.1649C14.2462 10.8866 15.2362 10.5383 16.4545 11.7549C16.702 12.0024 16.9353 12.2241 17.152 12.4299C18.0378 13.2733 18.7378 13.9391 18.7496 14.8724C18.7587 15.6674 18.2753 16.4791 17.082 17.6724L16.5537 17.3141L17.0012 17.7499C16.737 18.0208 16.0345 18.7424 14.6587 18.7508H14.6337C12.557 18.7508 9.84949 17.0974 6.58616 13.8349C3.30949 10.5591 1.65366 7.84328 1.66609 5.76244C1.67366 4.38744 2.39449 3.68328 2.66532 3.41911L2.68844 3.39386L2.74449 3.33744C3.94032 2.14161 4.76199 1.64994 5.54699 1.66744ZM5.53116 2.91744H5.52449C5.15027 2.91744 4.58196 3.29244 3.78934 4.06236L3.63018 4.21866L3.63199 4.21828C3.63199 4.21828 3.61839 4.23388 3.59521 4.25752L3.53949 4.31328C3.33782 4.50911 2.92032 4.91661 2.91611 5.76911C2.90949 6.96161 3.69366 9.17578 7.46949 12.9508C11.227 16.7074 13.4378 17.5008 14.6337 17.5008H14.6512C15.5037 17.4958 15.9103 17.0783 16.1062 16.8774C16.1653 16.8166 16.2137 16.7708 16.2478 16.7433C17.0787 15.9074 17.5037 15.2866 17.4995 14.8874C17.4945 14.4808 16.9887 14.0008 16.2895 13.3349C16.067 13.1241 15.8253 12.8933 15.5703 12.6383C14.9087 11.9791 14.5828 12.0916 13.862 12.3449C12.8662 12.6941 11.502 13.1724 9.37616 11.0449C7.24949 8.91911 7.72616 7.55494 8.07366 6.55828C8.32532 5.83828 8.44032 5.51078 7.77949 4.84911C7.52116 4.59078 7.28866 4.34578 7.07449 4.12078C6.41282 3.42578 5.93532 2.92328 5.53116 2.91744ZM12.7046 4.63203C14.4387 4.96869 15.7779 6.30703 16.1154 8.04203C16.1812 8.38203 15.9604 8.70953 15.6221 8.77536C15.5812 8.78286 15.5412 8.78702 15.5012 8.78702C15.2079 8.78702 14.9471 8.58036 14.8887 8.28203C14.6487 7.04869 13.6979 6.09786 12.4662 5.85869C12.1271 5.79286 11.9062 5.46536 11.9721 5.12619C12.0379 4.78703 12.3712 4.56536 12.7046 4.63203ZM12.6547 1.67219C16.053 2.04969 18.6922 4.68553 19.073 8.08303C19.1113 8.42636 18.8647 8.73553 18.5222 8.77386C18.4988 8.77636 18.4747 8.77803 18.4513 8.77803C18.1372 8.77803 17.8672 8.54219 17.8313 8.22303C17.5155 5.40969 15.3305 3.22636 12.5163 2.91386C12.1738 2.87553 11.9263 2.56719 11.9647 2.22386C12.0022 1.88136 12.308 1.62886 12.6547 1.67219Z" fill="#B0B0B2"/>
</svg>
