<svg width="39" height="43" viewBox="0 0 39 43" fill="none" xmlns="http://www.w3.org/2000/svg">
<g filter="url(#filter0_d_73_2804)">
<path d="M10.543 18.3711L17.0573 28.1425L22.2001 28.4854L26.4858 27.7997L28.3715 25.9139V15.4568L27.5144 14.5997L25.4573 14.7711L24.4287 13.5711H22.543L21.0001 12.5425L19.4573 13.0568V7.39967L17.9144 6.37109L16.543 7.39967V19.2282L11.9144 17.1711L10.543 18.3711Z" fill="white"/>
<path d="M16.5 20C16.224 20 16 19.776 16 19.5V8C16 6.897 16.897 6 18 6C19.103 6 20 6.897 20 8V18.5C20 18.776 19.776 19 19.5 19C19.224 19 19 18.776 19 18.5V8C19 7.448 18.551 7 18 7C17.449 7 17 7.448 17 8V19.5C17 19.776 16.776 20 16.5 20Z" fill="#121212"/>
<path d="M22.5 19C22.224 19 22 18.776 22 18.5V14C22 13.448 21.551 13 21 13C20.449 13 20 13.448 20 14C20 14.276 19.776 14.5 19.5 14.5C19.224 14.5 19 14.276 19 14C19 12.897 19.897 12 21 12C22.103 12 23 12.897 23 14V18.5C23 18.776 22.776 19 22.5 19Z" fill="#121212"/>
<path d="M25.5 19C25.224 19 25 18.776 25 18.5V15C25 14.448 24.551 14 24 14C23.449 14 23 14.448 23 15C23 15.276 22.776 15.5 22.5 15.5C22.224 15.5 22 15.276 22 15C22 13.897 22.897 13 24 13C25.103 13 26 13.897 26 15V18.5C26 18.776 25.776 19 25.5 19Z" fill="#121212"/>
<path d="M24.5 29H18.713C17.154 29 15.729 28.211 14.901 26.891L10.318 19.583C10.316 19.579 10.314 19.576 10.312 19.573C10.108 19.262 10 18.891 10 18.5C10 17.397 10.897 16.5 12 16.5C12.368 16.5 12.721 16.597 13.021 16.781C13.029 16.785 13.037 16.79 13.044 16.795L16.761 19.074C16.996 19.218 17.071 19.526 16.926 19.762C16.782 19.996 16.472 20.071 16.238 19.926L12.543 17.66C12.532 17.654 12.522 17.648 12.511 17.641C12.366 17.549 12.189 17.5 12 17.5C11.449 17.5 11 17.948 11 18.5C11 18.686 11.049 18.865 11.138 19.01C11.143 19.017 11.147 19.024 11.152 19.031L15.748 26.36C16.392 27.387 17.5 28 18.713 28H24.5C26.43 28 28 26.43 28 24.5V16C28 15.448 27.551 15 27 15C26.449 15 26 15.448 26 16C26 16.276 25.776 16.5 25.5 16.5C25.224 16.5 25 16.276 25 16C25 14.897 25.897 14 27 14C28.103 14 29 14.897 29 16V24.5C29 26.981 26.981 29 24.5 29Z" fill="#121212"/>
</g>
<defs>
<filter id="filter0_d_73_2804" x="-1" y="-1" width="44" height="44" filterUnits="userSpaceOnUse" color-interpolation-filters="sRGB">
<feFlood flood-opacity="0" result="BackgroundImageFix"/>
<feColorMatrix in="SourceAlpha" type="matrix" values="0 0 0 0 0 0 0 0 0 0 0 0 0 0 0 0 0 0 127 0" result="hardAlpha"/>
<feOffset dy="4"/>
<feGaussianBlur stdDeviation="5"/>
<feColorMatrix type="matrix" values="0 0 0 0 0 0 0 0 0 0 0 0 0 0 0 0 0 0 0.13 0"/>
<feBlend mode="normal" in2="BackgroundImageFix" result="effect1_dropShadow_73_2804"/>
<feBlend mode="normal" in="SourceGraphic" in2="effect1_dropShadow_73_2804" result="shape"/>
</filter>
</defs>
</svg>
