<svg width="102" height="102" viewBox="0 0 102 102" fill="none" xmlns="http://www.w3.org/2000/svg">
<circle cx="51" cy="51" r="51" fill="#252532" fill-opacity="0.8"/>
<circle cx="51" cy="51" r="50.5" stroke="url(#paint0_linear_10586_251)" stroke-opacity="0.3"/>
<path d="M23.3016 45.5726V43.2891H16.1016V58.9786H23.3016V56.695C21.8266 56.695 20.4121 56.1091 19.3692 55.0662C18.3263 54.0232 17.7404 52.6088 17.7404 51.1338C17.7404 49.6589 18.3263 48.2444 19.3692 47.2015C20.4121 46.1586 21.8266 45.5726 23.3016 45.5726Z" fill="#D1D1D1"/>
<path d="M23.3015 45.5732V56.6956C24.7764 56.6956 26.191 56.1097 27.2339 55.0668C28.2768 54.0238 28.8627 52.6094 28.8627 51.1344C28.8627 49.6595 28.2768 48.245 27.2339 47.2021C26.191 46.1592 24.7764 45.5732 23.3015 45.5732Z" fill="#D1D1D1"/>
<path d="M32.9033 46.9697H34.5153V54.7339H32.9033V46.9697Z" fill="#D1D1D1"/>
<path d="M35.418 52.0747C35.418 51.5162 35.5838 50.9701 35.8945 50.5059C36.2052 50.0417 36.6467 49.6801 37.1631 49.4671C37.6795 49.2541 38.2475 49.1991 38.7952 49.3093C39.3428 49.4194 39.8454 49.6897 40.2392 50.0858C40.6331 50.482 40.9005 50.9861 41.0075 51.5344C41.1145 52.0826 41.0564 52.6503 40.8404 53.1655C40.6244 53.6806 40.2604 54.1201 39.7943 54.4281C39.3283 54.7361 38.7813 54.8988 38.2228 54.8956C37.8523 54.8985 37.4849 54.8275 37.1423 54.6865C36.7996 54.5455 36.4885 54.3376 36.2273 54.0749C35.966 53.8121 35.7599 53.4999 35.6209 53.1564C35.482 52.813 35.413 52.4452 35.418 52.0747ZM39.4586 52.0747C39.4522 51.8339 39.375 51.6003 39.2366 51.4032C39.0982 51.206 38.9048 51.054 38.6804 50.9662C38.4561 50.8784 38.2108 50.8586 37.9754 50.9095C37.7399 50.9604 37.5246 51.0795 37.3565 51.2521C37.1884 51.4246 37.0748 51.6428 37.0301 51.8796C36.9854 52.1163 37.0115 52.361 37.1051 52.5829C37.1987 52.8049 37.3556 52.9944 37.5564 53.1276C37.7571 53.2609 37.9926 53.3319 38.2335 53.3321C38.3975 53.3353 38.5605 53.3046 38.7121 53.2419C38.8637 53.1794 39.0008 53.0861 39.1147 52.9681C39.2287 52.8501 39.3171 52.7098 39.3744 52.5562C39.4318 52.4024 39.4567 52.2386 39.4478 52.0747H39.4586Z" fill="#D1D1D1"/>
<path d="M47.4053 49.4152V54.4714C47.4053 56.2552 46.0083 57.0129 44.5951 57.0129C44.0967 57.0537 43.5967 56.9547 43.1515 56.7269C42.7063 56.4991 42.3335 56.1515 42.0751 55.7233L43.4345 54.9388C43.5447 55.161 43.7199 55.3442 43.9369 55.4642C44.1538 55.5841 44.4022 55.6352 44.6489 55.6105C44.806 55.6298 44.9655 55.6142 45.1159 55.5648C45.2663 55.5153 45.4039 55.4333 45.5189 55.3244C45.634 55.2155 45.7235 55.0827 45.7811 54.9352C45.8388 54.7877 45.8631 54.6293 45.8524 54.4714V53.9824C45.6649 54.2099 45.4268 54.3904 45.1573 54.5098C44.8877 54.6292 44.5941 54.6841 44.2996 54.6702C43.5871 54.6702 42.9038 54.3871 42.3999 53.8833C41.8961 53.3795 41.613 52.6961 41.613 51.9836C41.613 51.2711 41.8961 50.5878 42.3999 50.0839C42.9038 49.5801 43.5871 49.297 44.2996 49.297C44.5941 49.2831 44.8877 49.338 45.1573 49.4574C45.4268 49.5768 45.6649 49.7574 45.8524 49.9848V49.4475L47.4053 49.4152ZM45.8524 51.9675C45.8631 51.7104 45.7967 51.456 45.6617 51.237C45.5267 51.018 45.3293 50.8444 45.0947 50.7385C44.8602 50.6326 44.5995 50.5993 44.3459 50.6428C44.0923 50.6863 43.8575 50.8047 43.6718 50.9827C43.486 51.1607 43.3577 51.3902 43.3035 51.6418C43.2492 51.8933 43.2714 52.1552 43.3672 52.394C43.4631 52.6328 43.6281 52.8374 43.8412 52.9817C44.0543 53.1259 44.3056 53.2031 44.5629 53.2033C44.7308 53.2154 44.8994 53.1921 45.0576 53.1351C45.216 53.0779 45.3606 52.9883 45.4821 52.8718C45.6037 52.7553 45.6994 52.6147 45.7632 52.4589C45.827 52.3031 45.8574 52.1357 45.8524 51.9675Z" fill="#D1D1D1"/>
<path d="M48.3134 52.0748C48.3134 51.5167 48.479 50.9711 48.7892 50.507C49.0994 50.043 49.5403 49.6815 50.056 49.4681C50.5718 49.2548 51.1393 49.1992 51.6866 49.3085C52.234 49.4178 52.7366 49.687 53.1309 50.082C53.5252 50.4771 53.7934 50.9803 53.9016 51.5278C54.0099 52.0753 53.9533 52.6427 53.7389 53.158C53.5246 53.6734 53.1622 54.1136 52.6976 54.4229C52.233 54.7323 51.6871 54.8968 51.1289 54.8957C50.7578 54.8993 50.3895 54.8288 50.046 54.6882C49.7024 54.5476 49.3904 54.3399 49.1281 54.0772C48.8659 53.8144 48.6588 53.502 48.5188 53.1581C48.379 52.8143 48.3091 52.446 48.3134 52.0748ZM52.354 52.0748C52.3477 51.8338 52.2703 51.5999 52.1317 51.4026C51.9931 51.2054 51.7992 51.0534 51.5746 50.9657C51.3499 50.8781 51.1044 50.8587 50.8688 50.91C50.6332 50.9613 50.418 51.081 50.2501 51.2541C50.0821 51.4271 49.969 51.6459 49.925 51.883C49.8809 52.1201 49.9077 52.3649 50.0021 52.5867C50.0965 52.8086 50.2543 52.9977 50.4557 53.1303C50.6571 53.2629 50.8932 53.3331 51.1343 53.3321C51.2984 53.3353 51.4613 53.3047 51.6129 53.242C51.7645 53.1794 51.9016 53.0862 52.0156 52.9682C52.1295 52.8502 52.2179 52.7099 52.2752 52.5562C52.3326 52.4025 52.3576 52.2386 52.3486 52.0748H52.354Z" fill="#D1D1D1"/>
<path d="M54.6914 47.9906C54.6914 47.8015 54.7475 47.6165 54.8526 47.4592C54.9577 47.302 55.1071 47.1794 55.2818 47.107C55.4566 47.0346 55.6489 47.0157 55.8344 47.0526C56.0199 47.0895 56.1903 47.1806 56.3241 47.3143C56.4579 47.4481 56.5489 47.6185 56.5859 47.804C56.6228 47.9895 56.6038 48.1818 56.5314 48.3566C56.4591 48.5314 56.3364 48.6807 56.1792 48.7858C56.0219 48.8909 55.837 48.947 55.6478 48.947C55.395 48.9442 55.1534 48.8426 54.9746 48.6638C54.7959 48.485 54.6942 48.2434 54.6914 47.9906ZM54.8472 49.4145H56.4592V54.7339H54.8472V49.4145Z" fill="#D1D1D1"/>
<path d="M63.3582 52.0743C63.3762 52.4281 63.3241 52.782 63.2049 53.1155C63.0857 53.4491 62.9017 53.7558 62.6635 54.0179C62.4253 54.2802 62.1376 54.4926 61.8169 54.6432C61.4963 54.7937 61.149 54.8794 60.7952 54.8952C60.4949 54.9152 60.1939 54.8671 59.9148 54.7545C59.6357 54.6419 59.3856 54.4678 59.1832 54.2451V56.8725H57.5713V49.4146H59.1832V49.9143C59.3859 49.6922 59.6362 49.5189 59.9153 49.4073C60.1945 49.2956 60.4952 49.2485 60.7952 49.2695C61.1476 49.2854 61.4935 49.3706 61.8131 49.5201C62.1326 49.6696 62.4196 49.8807 62.6575 50.1411C62.8956 50.4016 63.0799 50.7063 63.2001 51.0381C63.3203 51.3697 63.3741 51.7218 63.3582 52.0743ZM61.7462 52.0743C61.7399 51.8247 61.66 51.5826 61.5166 51.3783C61.3733 51.1739 61.1727 51.0164 60.9402 50.9255C60.7077 50.8346 60.4536 50.8144 60.2096 50.8674C59.9657 50.9203 59.7428 51.0441 59.5689 51.2232C59.3949 51.4022 59.2777 51.6287 59.232 51.8741C59.1862 52.1195 59.2139 52.373 59.3116 52.6027C59.4093 52.8324 59.5726 53.0282 59.781 53.1656C59.9895 53.3029 60.2339 53.3756 60.4835 53.3746C60.6545 53.3819 60.8251 53.3529 60.9841 53.2896C61.1431 53.2263 61.287 53.1301 61.4062 53.0074C61.5254 52.8846 61.6173 52.738 61.6759 52.5772C61.7346 52.4164 61.7585 52.245 61.7462 52.0743Z" fill="#D1D1D1"/>
<path d="M68.2639 53.1386C68.2639 54.3636 67.1893 54.8848 66.0502 54.8848C65.5856 54.9266 65.1191 54.8282 64.7111 54.6021C64.3031 54.3761 63.9722 54.0328 63.7612 53.6168L65.1475 52.8323C65.2024 53.024 65.3215 53.1911 65.4848 53.3055C65.6482 53.42 65.8458 53.4748 66.0448 53.461C66.4263 53.461 66.6197 53.3428 66.6197 53.1278C66.6197 52.5422 64.003 52.8538 64.003 51.0108C64.003 49.8502 64.9809 49.2699 66.0878 49.2699C66.5085 49.2511 66.9265 49.3465 67.2973 49.5461C67.6682 49.7458 67.9781 50.0421 68.1941 50.4036L66.8078 51.1344C66.7465 50.9958 66.6465 50.8779 66.5197 50.7949C66.3928 50.712 66.2447 50.6675 66.0932 50.6669C65.8138 50.6669 65.6472 50.7744 65.6472 50.9625C65.6472 51.575 68.2639 51.172 68.2639 53.1386Z" fill="#D1D1D1"/>
<path d="M74.1045 49.415V54.7344H72.4925V54.2347C72.3093 54.456 72.0767 54.631 71.8139 54.7458C71.5506 54.8606 71.2642 54.9119 70.9773 54.8956C69.9027 54.8956 68.9839 54.1273 68.9839 52.6927V49.415H70.5958V52.4509C70.5829 52.5778 70.598 52.7059 70.6399 52.8265C70.6818 52.947 70.749 53.0571 70.8371 53.149C70.9257 53.241 71.0332 53.3127 71.1519 53.3591C71.2707 53.4056 71.398 53.4257 71.5254 53.418C72.1057 53.418 72.514 53.0741 72.514 52.3434V49.415H74.1045Z" fill="#D1D1D1"/>
<path d="M83.2389 51.4677V54.7346H81.6269V51.6074C81.6269 51.0701 81.3744 50.737 80.864 50.737C80.3535 50.737 80.0311 51.1077 80.0311 51.7364V54.7346H78.4192V51.6074C78.4192 51.0701 78.1667 50.737 77.6562 50.737C77.1458 50.737 76.8234 51.1077 76.8234 51.7364V54.7346H75.2114V49.4152H76.8234V49.9041C76.9905 49.6881 77.2081 49.5171 77.4579 49.4064C77.7072 49.2957 77.9807 49.2488 78.2526 49.2701C78.525 49.2559 78.7969 49.3128 79.0409 49.4353C79.2848 49.5577 79.4927 49.7416 79.6443 49.9686C79.8216 49.7313 80.0558 49.5429 80.3256 49.4207C80.5948 49.2985 80.8914 49.2467 81.1864 49.2701C82.4437 49.2701 83.2389 50.1406 83.2389 51.4677Z" fill="#D1D1D1"/>
<path d="M84.5927 49.3827C85.2456 49.3827 85.7748 48.8535 85.7748 48.2006C85.7748 47.5478 85.2456 47.0186 84.5927 47.0186C83.9399 47.0186 83.4106 47.5478 83.4106 48.2006C83.4106 48.8535 83.9399 49.3827 84.5927 49.3827Z" fill="#D1D1D1"/>
<defs>
<linearGradient id="paint0_linear_10586_251" x1="-1.07003e-06" y1="-3.68497" x2="110.285" y2="5.81496" gradientUnits="userSpaceOnUse">
<stop stop-color="white"/>
<stop offset="1" stop-color="white" stop-opacity="0"/>
</linearGradient>
</defs>
</svg>
