<svg width="102" height="102" viewBox="0 0 102 102" fill="none" xmlns="http://www.w3.org/2000/svg">
<circle cx="51" cy="51" r="51" fill="#252532" fill-opacity="0.8"/>
<circle cx="51" cy="51" r="50.5" stroke="url(#paint0_linear_10586_221)" stroke-opacity="0.3"/>
<path d="M31.6473 47.6816C31.8437 47.6816 31.9091 47.7525 31.9091 47.9435V52.2635H34.1291C34.3201 52.2635 34.391 52.3344 34.391 52.5253V52.9071C34.391 53.098 34.3201 53.1689 34.1291 53.1689H31.2055C31.0146 53.1689 30.9382 53.098 30.9382 52.9071V47.9435C30.9382 47.7525 31.0146 47.6816 31.2055 47.6816H31.6473Z" fill="#D1D1D1"/>
<path d="M36.3274 49.5856C36.3274 48.3256 37.1238 47.5674 38.5092 47.5674C39.8947 47.5674 40.691 48.3256 40.691 49.5856V51.2656C40.691 52.5256 39.8892 53.2837 38.5092 53.2837C37.1292 53.2837 36.3274 52.5256 36.3274 51.2656V49.5856ZM39.7747 49.5856C39.7747 48.8765 39.3328 48.4947 38.5365 48.4947C37.7401 48.4947 37.3038 48.8819 37.3038 49.5856V51.2765C37.3038 51.991 37.7401 52.3674 38.5365 52.3674C39.3328 52.3674 39.7747 51.9747 39.7747 51.2765V49.5856Z" fill="#D1D1D1"/>
<path d="M47.1873 50.1641C47.4 50.1641 47.4491 50.235 47.4491 50.4259V51.4623C47.4549 51.7064 47.406 51.9487 47.3059 52.1714C47.2058 52.3942 47.0572 52.5917 46.8709 52.7495C46.4082 53.118 45.8248 53.3008 45.2346 53.2623C43.8218 53.2623 43.0527 52.5041 43.0527 51.2441V49.5532C43.0527 48.3095 43.8491 47.5459 45.2346 47.5459C46.3255 47.5459 47.0346 47.9768 47.3346 48.8386C47.3514 48.871 47.3604 48.9069 47.3608 48.9433C47.3613 48.9798 47.3533 49.0159 47.3374 49.0487C47.3216 49.0815 47.2982 49.1102 47.2693 49.1325C47.2404 49.1547 47.2067 49.1699 47.1709 49.1768L46.7455 49.3241C46.56 49.3895 46.4836 49.3514 46.4182 49.1604C46.3278 48.9275 46.1624 48.7312 45.948 48.6028C45.7336 48.4744 45.4826 48.4211 45.2346 48.4514C44.4327 48.4514 43.9964 48.8386 43.9964 49.5423V51.2768C43.9964 51.9914 44.4382 52.3677 45.2346 52.3677C46.0309 52.3677 46.5218 52.0023 46.5218 51.4677V51.0641H45.3382C45.1418 51.0641 45.0709 50.9877 45.0709 50.7968V50.4259C45.0709 50.235 45.1418 50.1641 45.3382 50.1641H47.1873Z" fill="#D1D1D1"/>
<path d="M49.7019 49.5856C49.7019 48.3256 50.4983 47.5674 51.8837 47.5674C53.2692 47.5674 54.0655 48.3256 54.0655 49.5856V51.2656C54.0655 52.5256 53.2637 53.2837 51.8837 53.2837C50.5037 53.2837 49.7019 52.5256 49.7019 51.2656V49.5856ZM53.1437 49.5856C53.1437 48.8765 52.7019 48.4947 51.911 48.4947C51.1201 48.4947 50.6728 48.8819 50.6728 49.5856V51.2765C50.6728 51.991 51.1146 52.3674 51.911 52.3674C52.7074 52.3674 53.1437 51.9747 53.1437 51.2765V49.5856Z" fill="#D1D1D1"/>
<path d="M56.6345 47.8398C56.6345 47.7198 56.6727 47.6816 56.7927 47.6816H57.0436C57.1636 47.6816 57.1909 47.7198 57.1909 47.8398V53.0107C57.1909 53.1307 57.1909 53.1689 57.0436 53.1689H56.7927C56.6727 53.1689 56.6345 53.1307 56.6345 53.0107V47.8398Z" fill="#D1D1D1"/>
<path d="M62.16 47.6816C62.6143 47.6816 63.0499 47.8621 63.3711 48.1833C63.6923 48.5045 63.8727 48.9401 63.8727 49.3944C63.8727 49.8486 63.6923 50.2843 63.3711 50.6054C63.0499 50.9267 62.6143 51.1071 62.16 51.1071H60.5236V53.0107C60.5236 53.1307 60.4964 53.1689 60.3818 53.1689H60.1255C60.0109 53.1689 59.9673 53.1307 59.9673 53.0107V47.8398C59.9673 47.7198 60.0109 47.6816 60.1255 47.6816H62.16ZM62.1109 50.5671C62.2671 50.5671 62.4217 50.5363 62.566 50.4766C62.7102 50.4168 62.8413 50.3292 62.9517 50.2188C63.0621 50.1084 63.1497 49.9773 63.2095 49.8331C63.2692 49.6888 63.3 49.5342 63.3 49.378C63.3 49.2218 63.2692 49.0672 63.2095 48.9229C63.1497 48.7787 63.0621 48.6476 62.9517 48.5372C62.8413 48.4268 62.7102 48.3392 62.566 48.2794C62.4217 48.2197 62.2671 48.1889 62.1109 48.1889H60.4746V50.5671H62.1109Z" fill="#D1D1D1"/>
<path d="M68.1328 47.5724C68.5539 47.526 68.9788 47.6166 69.3444 47.8308C69.7097 48.045 69.9966 48.3714 70.1619 48.7615C70.2055 48.8488 70.1619 48.9197 70.0746 48.9633L69.8346 49.0724C69.7364 49.1106 69.6982 49.1052 69.6382 49.0015C69.5146 48.712 69.3022 48.4693 69.0315 48.3085C68.7609 48.1477 68.4462 48.0771 68.1328 48.107C67.211 48.107 66.7092 48.4724 66.7092 49.127C66.7038 49.327 66.771 49.5223 66.8983 49.6766C67.0256 49.831 67.2045 49.9341 67.4019 49.967C67.6952 50.0626 67.9994 50.1213 68.3073 50.1415C68.68 50.1614 69.0477 50.2368 69.3982 50.3652C69.6672 50.4502 69.8984 50.6251 70.0533 50.8605C70.2082 51.0959 70.2775 51.3775 70.2492 51.6579C70.2492 52.6779 69.5073 53.2942 68.1437 53.2942C67.6964 53.3454 67.2451 53.2418 66.865 53.0006C66.4849 52.7594 66.1988 52.3952 66.0546 51.9688C66.045 51.9494 66.0398 51.928 66.0393 51.9063C66.0389 51.8846 66.0433 51.8631 66.0522 51.8433C66.061 51.8235 66.0741 51.8059 66.0906 51.7918C66.107 51.7776 66.1264 51.7673 66.1473 51.7615L66.3873 51.6742C66.4062 51.6665 66.4266 51.6628 66.447 51.6633C66.4674 51.6639 66.4874 51.6687 66.5059 51.6774C66.5244 51.6861 66.5408 51.6986 66.5542 51.714C66.5676 51.7294 66.5776 51.7474 66.5837 51.767C66.7057 52.0751 66.9227 52.3364 67.2032 52.5129C67.4836 52.6894 67.8131 52.7721 68.1437 52.7488C69.1746 52.7488 69.6819 52.3888 69.6819 51.6579C69.6917 51.4658 69.6328 51.2764 69.5157 51.1236C69.3989 50.9708 69.2316 50.8644 69.0437 50.8233C68.7615 50.7392 68.4704 50.6879 68.1764 50.6706L67.5873 50.5942C67.403 50.5551 67.2209 50.5059 67.0419 50.447C66.865 50.3936 66.7002 50.3065 66.5564 50.1906C66.4117 50.0596 66.2977 49.8984 66.2222 49.7183C66.1468 49.5382 66.1119 49.3438 66.1201 49.1488C66.1582 48.1942 66.8728 47.5724 68.1328 47.5724Z" fill="#D1D1D1"/>
<path d="M73.189 51.3035C73.2119 51.6892 73.3816 52.0515 73.663 52.3165C73.9445 52.5814 74.3165 52.7289 74.7027 52.7289C75.0888 52.7289 75.4608 52.5814 75.7423 52.3165C76.0237 52.0515 76.1928 51.6892 76.2163 51.3035V47.8398C76.2163 47.7198 76.2545 47.6816 76.3745 47.6816H76.6254C76.7454 47.6816 76.7836 47.7198 76.7836 47.8398V51.298C76.7836 52.5362 76.0527 53.2835 74.7054 53.2835C73.3581 53.2835 72.6272 52.5362 72.6272 51.298V47.8398C72.6272 47.7198 72.6654 47.6816 72.7799 47.6816H73.0363C73.1508 47.6816 73.189 47.7198 73.189 47.8398V51.3035Z" fill="#D1D1D1"/>
<path d="M84.311 47.6816C84.431 47.6816 84.4692 47.7198 84.4692 47.8398V53.0107C84.4692 53.1307 84.431 53.1689 84.311 53.1689H84.0819C83.9674 53.1689 83.9292 53.1307 83.9292 53.0107V49.8634C83.9292 49.4055 83.9603 48.9481 84.0219 48.4943H83.9892C83.819 48.9092 83.6199 49.312 83.3946 49.6998L82.2219 51.767C82.2077 51.8029 82.1826 51.8336 82.1504 51.855C82.1183 51.8764 82.0806 51.8876 82.0419 51.887H81.8892C81.8499 51.8873 81.8117 51.876 81.7784 51.8547C81.7457 51.8334 81.7195 51.8029 81.7037 51.767L80.5146 49.678C80.3035 49.2958 80.1214 48.8983 79.9692 48.4889H79.9364C79.9921 48.9468 80.0215 49.4076 80.0237 49.8689V53.0107C80.0237 53.1307 79.9855 53.1689 79.8655 53.1689H79.6528C79.5328 53.1689 79.4946 53.1307 79.4946 53.0107V47.8398C79.4946 47.7198 79.5328 47.6816 79.6528 47.6816H79.8492C79.8939 47.6774 79.9392 47.6872 79.9779 47.7097C80.0172 47.7322 80.0483 47.7662 80.0674 47.807L81.9764 51.1998L83.8746 47.8398C83.9346 47.7252 83.9674 47.7089 84.0874 47.7089L84.311 47.6816Z" fill="#D1D1D1"/>
<path d="M21.9437 52.3404V56.284C21.9437 56.4352 21.8836 56.5802 21.7767 56.687C21.6699 56.7939 21.5249 56.854 21.3737 56.854C21.2226 56.854 21.0776 56.7939 20.9707 56.687C20.8638 56.5802 20.8037 56.4352 20.8037 56.284V52.3458C20.9624 52.4617 21.1527 52.5264 21.3492 52.5313C21.5633 52.5374 21.7731 52.47 21.9437 52.3404ZM26.7982 51.2004C26.6536 51.2004 26.5148 51.2578 26.4126 51.3601C26.3103 51.4624 26.2528 51.6012 26.2528 51.7458V52.4331C26.2528 52.5843 26.3128 52.7293 26.4198 52.8361C26.5266 52.943 26.6716 53.0031 26.8228 53.0031C26.974 53.0031 27.119 52.943 27.2258 52.8361C27.3327 52.7293 27.3928 52.5843 27.3928 52.4331V51.7731C27.397 51.6949 27.3844 51.6166 27.3557 51.5438C27.327 51.4709 27.283 51.405 27.2265 51.3507C27.1701 51.2964 27.1027 51.2548 27.0288 51.2288C26.9549 51.2029 26.8762 51.1932 26.7982 51.2004ZM19.5655 53.8349C19.3693 53.829 19.1792 53.7644 19.0201 53.6494V57.604C19.0201 57.7559 19.0804 57.9016 19.1878 58.009C19.2952 58.1164 19.4409 58.1767 19.5928 58.1767C19.7447 58.1767 19.8904 58.1164 19.9978 58.009C20.1052 57.9016 20.1655 57.7559 20.1655 57.604V53.6767C19.9874 53.7919 19.7772 53.8473 19.5655 53.8349ZM25.0201 50.0167C24.9462 50.013 24.8723 50.0244 24.8029 50.0502C24.7336 50.0759 24.6702 50.1155 24.6166 50.1665C24.563 50.2176 24.5204 50.2789 24.4913 50.3469C24.4622 50.415 24.4472 50.4882 24.4473 50.5622V53.6004C24.4473 53.7523 24.5077 53.898 24.6151 54.0054C24.7225 54.1128 24.8682 54.1731 25.0201 54.1731C25.172 54.1731 25.3177 54.1128 25.4251 54.0054C25.5325 53.898 25.5928 53.7523 25.5928 53.6004V50.6004C25.5972 50.5216 25.5844 50.4429 25.5554 50.3696C25.5264 50.2963 25.4818 50.2302 25.4248 50.1757C25.3677 50.1213 25.2996 50.0798 25.225 50.0543C25.1505 50.0287 25.0712 50.0196 24.9928 50.0276L25.0201 50.0167ZM23.2092 51.184C23.0037 51.1826 22.8037 51.1178 22.6364 50.9985V54.964C22.6364 55.1159 22.6968 55.2616 22.8042 55.369C22.9116 55.4764 23.0572 55.5367 23.2092 55.5367C23.3611 55.5367 23.5067 55.4764 23.6142 55.369C23.7216 55.2616 23.7819 55.1159 23.7819 54.964V51.004C23.6089 51.1329 23.3976 51.2001 23.1819 51.1949L23.2092 51.184ZM18.3273 54.2222V43.144C18.3259 43.009 18.2713 42.8799 18.1753 42.785C18.0793 42.69 17.9497 42.6367 17.8146 42.6367H17.6946C17.5596 42.6367 17.43 42.69 17.334 42.785C17.238 42.8799 17.1833 43.009 17.1819 43.144V54.2222C17.1819 54.3582 17.2359 54.4886 17.3321 54.5847C17.4282 54.6809 17.5586 54.7349 17.6946 54.7349H17.8146C17.9506 54.7349 18.081 54.6809 18.1772 54.5847C18.2733 54.4886 18.3273 54.3582 18.3273 54.2222ZM19.6255 53.4149H19.5055C19.3695 53.4149 19.2391 53.3609 19.143 53.2647C19.0468 53.1686 18.9928 53.0382 18.9928 52.9022V44.464C18.9942 44.329 19.0489 44.1999 19.1449 44.105C19.2409 44.01 19.3705 43.9567 19.5055 43.9567H19.6255C19.7606 43.9567 19.8902 44.01 19.9862 44.105C20.0822 44.1999 20.1368 44.329 20.1382 44.464V52.9131C20.1382 53.0491 20.0842 53.1795 19.9881 53.2756C19.8919 53.3718 19.7615 53.4258 19.6255 53.4258V53.4149ZM21.431 52.1167H21.3055C21.171 52.1167 21.042 52.0633 20.9468 51.9681C20.8517 51.873 20.7982 51.744 20.7982 51.6094V45.7731C20.7975 45.706 20.8101 45.6395 20.8353 45.5773C20.8604 45.5151 20.8977 45.4585 20.9449 45.4109C20.992 45.3632 21.0482 45.3253 21.1101 45.2995C21.172 45.2737 21.2384 45.2603 21.3055 45.2604H21.431C21.566 45.2618 21.695 45.3164 21.79 45.4124C21.885 45.5084 21.9382 45.638 21.9382 45.7731V51.6094C21.9382 51.744 21.8848 51.873 21.7897 51.9681C21.6945 52.0633 21.5655 52.1167 21.431 52.1167ZM23.2364 50.7804H23.1219C22.9868 50.7804 22.8572 50.7271 22.7612 50.6321C22.6652 50.5371 22.6106 50.4081 22.6092 50.2731V47.1313C22.6047 47.0612 22.6146 46.991 22.6384 46.925C22.6621 46.859 22.6992 46.7985 22.7473 46.7474C22.7953 46.6962 22.8534 46.6555 22.9178 46.6277C22.9822 46.5999 23.0517 46.5856 23.1219 46.5858H23.2419C23.3779 46.5858 23.5083 46.6398 23.6044 46.736C23.7006 46.8321 23.7546 46.9626 23.7546 47.0985V50.2622C23.7553 50.33 23.7426 50.3972 23.7171 50.4601C23.6917 50.5229 23.6541 50.5801 23.6064 50.6283C23.5587 50.6764 23.502 50.7147 23.4393 50.7408C23.3768 50.7669 23.3097 50.7804 23.2419 50.7804H23.2364ZM25.0473 49.6076H24.9273C24.7914 49.6076 24.6609 49.5536 24.5648 49.4575C24.4686 49.3613 24.4146 49.2309 24.4146 49.0949V48.2822C24.416 48.1471 24.4707 48.0181 24.5667 47.9232C24.6627 47.8281 24.7923 47.7749 24.9273 47.7749H25.0473C25.1824 47.7749 25.312 47.8281 25.408 47.9232C25.504 48.0181 25.5586 48.1471 25.5601 48.2822V49.0949C25.5601 49.23 25.5068 49.3596 25.4118 49.4556C25.3168 49.5516 25.1878 49.6062 25.0528 49.6076H25.0473Z" fill="#D1D1D1"/>
<defs>
<linearGradient id="paint0_linear_10586_221" x1="-1.07003e-06" y1="-3.68497" x2="110.285" y2="5.81496" gradientUnits="userSpaceOnUse">
<stop stop-color="white"/>
<stop offset="1" stop-color="white" stop-opacity="0"/>
</linearGradient>
</defs>
</svg>
