<svg width="20" height="20" viewBox="0 0 20 20" fill="none" xmlns="http://www.w3.org/2000/svg">
<path fill-rule="evenodd" clip-rule="evenodd" d="M10.208 1.66699C13.9988 1.66699 17.083 4.77449 17.083 8.59449C17.083 13.2903 11.703 17.917 10.208 17.917C8.71301 17.917 3.33301 13.2903 3.33301 8.59449C3.33301 4.77449 6.41717 1.66699 10.208 1.66699ZM10.208 2.91699C7.10634 2.91699 4.58301 5.46449 4.58301 8.59449C4.58301 12.577 9.26967 16.457 10.208 16.6637C11.1463 16.4562 15.833 12.5762 15.833 8.59449C15.833 5.46449 13.3097 2.91699 10.208 2.91699ZM10.2088 5.83366C11.7022 5.83366 12.9172 7.04866 12.9172 8.54283C12.9172 10.0362 11.7022 11.2503 10.2088 11.2503C8.71551 11.2503 7.50051 10.0362 7.50051 8.54283C7.50051 7.04866 8.71551 5.83366 10.2088 5.83366ZM10.2088 7.08366C9.40467 7.08366 8.75051 7.73783 8.75051 8.54283C8.75051 9.34699 9.40467 10.0003 10.2088 10.0003C11.013 10.0003 11.6672 9.34699 11.6672 8.54283C11.6672 7.73783 11.013 7.08366 10.2088 7.08366Z" fill="#B0B0B2"/>
</svg>
