<svg width="70" height="71" viewBox="0 0 70 71" fill="none" xmlns="http://www.w3.org/2000/svg">
<path opacity="0.86" d="M40.5696 48.2821C40.5921 48.3186 40.6053 48.3582 40.6115 48.4008C40.6178 48.4427 40.6146 48.4846 40.6038 48.5258C40.5921 48.5669 40.5735 48.6049 40.5471 48.6383C40.5207 48.6716 40.4888 48.6988 40.4516 48.7197C37.4375 50.4305 34.2891 51.8433 31.0071 52.9583C32.5401 54.6752 31.9639 62.8947 31.4754 67.6538C31.4715 67.6926 31.4614 67.7291 31.4435 67.764C31.4257 67.7989 31.4024 67.8292 31.3736 67.8556C31.3449 67.8812 31.3123 67.9013 31.2758 67.9153C31.2393 67.9293 31.2012 67.9363 31.1624 67.9355H31.1321C31.0886 67.9324 31.0482 67.9207 31.0102 67.9006C30.9721 67.8804 30.9387 67.8532 30.9115 67.8199C30.8844 67.7865 30.8649 67.7493 30.8533 67.7082C30.8409 67.6663 30.8378 67.6244 30.8424 67.5817C32.1805 54.5224 30.5582 53.3648 30.444 53.2927C30.371 53.2833 30.3089 53.2515 30.2584 53.1988C28.4543 53.8032 26.616 54.2741 24.7444 54.6116C24.2815 54.7125 23.814 54.7637 23.3403 54.7652C21.7901 54.7652 20.3976 54.1942 19.5962 53.1685C18.8428 52.2057 18.2534 50.4452 19.6334 47.4814C19.0882 47.0446 17.8488 45.7521 18.8211 43.7333C18.8475 43.679 18.8863 43.6355 18.9376 43.6037C18.9888 43.5711 19.0448 43.5556 19.1053 43.5556H24.3172C24.3568 43.5595 24.3941 43.5696 24.4298 43.5866C24.4648 43.6045 24.4966 43.6277 24.523 43.6565C24.5494 43.6852 24.5704 43.7185 24.5844 43.755C24.5992 43.7922 24.6061 43.8302 24.6061 43.8698C24.6061 43.9094 24.5992 43.9474 24.5844 43.9839C24.5704 44.0211 24.5494 44.0537 24.523 44.0832C24.4966 44.1119 24.4648 44.1352 24.4298 44.1522C24.3941 44.1701 24.3568 44.1802 24.3172 44.1833H19.3158C19.2568 44.3097 19.2094 44.4408 19.1745 44.5758C19.1395 44.7116 19.1162 44.8482 19.1061 44.9878C19.096 45.1275 19.0983 45.2664 19.1139 45.4052C19.1286 45.5441 19.1566 45.6799 19.1962 45.8141C19.2366 45.9476 19.2886 46.0771 19.3515 46.2013C19.4152 46.3254 19.4898 46.4433 19.5744 46.5543C19.6598 46.6652 19.7538 46.7677 19.8579 46.8615C19.9612 46.9546 20.073 47.0384 20.1918 47.1121C20.2252 47.1323 20.2547 47.1579 20.2788 47.1897C20.3029 47.2208 20.3207 47.2549 20.3316 47.2929C20.3425 47.3309 20.3464 47.3697 20.3433 47.4093C20.3402 47.4481 20.3293 47.4853 20.3122 47.521C19.2172 49.7454 19.1426 51.5633 20.0932 52.7705C20.9848 53.9095 22.7671 54.3866 24.6325 53.9839C24.7226 53.9684 31.8963 52.8442 40.1362 48.1557C40.1735 48.1347 40.2131 48.1215 40.2551 48.1169C40.2978 48.1122 40.3389 48.1153 40.3801 48.1277C40.4205 48.1394 40.4578 48.1588 40.4904 48.1859C40.5238 48.2123 40.5502 48.2449 40.5696 48.2821ZM55.6027 46.9965C55.0466 50.6966 57.5233 57.2868 61.491 62.6666C61.5159 62.7 61.533 62.7372 61.543 62.7776C61.5531 62.8179 61.5547 62.8582 61.5493 62.8994C61.543 62.9405 61.5291 62.9785 61.5073 63.0142C61.4864 63.0499 61.4584 63.0794 61.425 63.1042C61.3916 63.129 61.3551 63.1461 61.3147 63.1554C61.2743 63.1655 61.234 63.1678 61.1928 63.1616C61.1516 63.1554 61.1136 63.1414 61.0779 63.1205C61.0421 63.0988 61.0126 63.0716 60.987 63.039C56.8639 57.4505 54.3942 50.8145 54.9829 46.9019C55.1732 45.6333 56.2201 43.2871 57.232 41.0185C57.9325 39.4505 58.6556 37.8297 59.0431 36.6753C59.0416 36.6667 59.0416 36.6574 59.0431 36.6489C59.1021 36.5154 59.1588 36.3796 59.2155 36.2439H54.4509C54.4595 36.316 54.4447 36.382 54.4075 36.4433C54.0184 37.0919 53.5765 37.7009 53.0802 38.272C52.9684 38.7088 52.3378 40.9464 50.9468 41.6508C50.668 41.7959 50.3706 41.8689 50.056 41.8696C49.74 41.865 49.4378 41.799 49.1497 41.6702C47.9141 41.1411 48.0392 39.8702 48.2737 39.2643C48.2908 39.2286 48.3141 39.1976 48.3436 39.1704C48.3723 39.1433 48.4057 39.1223 48.443 39.1076C48.4803 39.0936 48.5183 39.0866 48.5587 39.0866C48.5983 39.0866 48.6371 39.0936 48.6737 39.1084C48.7109 39.1231 48.7443 39.144 48.7731 39.1712C48.8026 39.1991 48.8251 39.2302 48.8422 39.2666C48.8593 39.3023 48.8694 39.3403 48.8725 39.3799C48.8748 39.4195 48.8701 39.4583 48.8585 39.4963C48.8119 39.6142 48.4313 40.6709 49.3928 41.0845C49.5916 41.1838 49.8029 41.2334 50.025 41.2334C50.2479 41.2334 50.4591 41.1838 50.6579 41.0845C51.9153 40.4483 52.476 38.0749 52.4822 38.0509C52.4931 38.0028 52.514 37.9601 52.5459 37.9221C53.0056 37.3945 53.4196 36.8328 53.7877 36.2377H48.8119C48.7847 36.2384 48.7575 36.2346 48.7311 36.2268C48.2442 36.0825 47.786 35.8746 47.3557 35.6046C46.9263 35.3338 46.5403 35.011 46.2001 34.6347C46.1403 34.6976 46.0673 34.7302 45.9811 34.7333H44.6228C43.6862 36.299 42.5671 37.3572 41.2662 37.3572H41.1831C40.7451 37.6179 38.7741 38.7484 36.8977 38.7484C36.7642 38.7484 36.6282 38.7484 36.4947 38.729C36.1599 38.8834 35.8081 38.9633 35.4392 38.9695C35.3655 38.9695 35.2925 38.9648 35.2202 38.954L15.1088 37.874C15.1314 37.8887 15.1508 37.9065 15.1686 37.9259C15.915 38.9082 18.0981 38.9741 18.8778 38.9144C18.9252 38.9105 18.9718 38.9175 19.016 38.9346C19.0611 38.9516 19.0999 38.978 19.1325 39.0129C19.1651 39.0478 19.1884 39.0882 19.2024 39.134C19.2164 39.1797 19.2203 39.2263 19.2125 39.2736C19.1232 39.8858 18.9935 41.6508 19.4059 42.4446C19.4245 42.4818 19.4362 42.5206 19.4401 42.5625C19.4439 42.6036 19.4401 42.644 19.4276 42.6843C19.4152 42.7239 19.3958 42.7596 19.3694 42.7914C19.343 42.824 19.3111 42.8496 19.2739 42.869C19.2288 42.8946 19.1799 42.907 19.1271 42.9062C19.0696 42.9062 19.0152 42.8907 18.9655 42.8612C18.9158 42.8317 18.877 42.7914 18.849 42.7402C18.3831 41.865 18.4724 40.2776 18.5446 39.5552C17.6694 39.5708 15.5515 39.4722 14.6669 38.3046C14.6421 38.2712 14.6242 38.2347 14.6141 38.1944C14.6033 38.1548 14.6009 38.1145 14.6071 38.0734C14.6126 38.0322 14.6258 37.9934 14.6467 37.9577C14.6677 37.9221 14.6949 37.8918 14.7283 37.867C14.7283 37.867 14.7438 37.867 14.75 37.8561L10.9073 37.6482C10.8017 37.6482 8.23729 37.576 7.98566 35.9684C5.66046 35.4153 5.47174 32.8363 5.46086 32.6066C4.95994 27.787 4.86753 22.9596 5.18283 18.1236C5.24885 16.409 6.76637 15.8511 7.31155 15.786L7.63075 15.7285C7.89169 15.3639 8.7716 14.3972 10.9687 14.0752C11.0409 14.0752 15.4878 13.4716 22.211 13.1527C26.2922 7.04355 35.0408 3.67786 41.1482 3.95097C49.3509 4.32105 56.356 8.32527 59.9339 14.6679L60.8425 14.5873C60.8045 14.346 60.8115 14.1062 60.8627 13.868C60.9148 13.6291 61.008 13.4087 61.1431 13.2047C61.4273 12.8307 61.8723 12.6344 62.4564 12.6189H62.52C64.5874 12.6189 64.7474 15.2979 64.8654 17.2601C65.1109 21.3279 65.0208 24.5586 64.5936 27.1345C63.9871 30.8136 62.9953 33.5865 60.0372 35.8831C59.9036 36.2221 59.7654 36.5589 59.6209 36.8871C59.2248 38.0703 58.5259 39.6274 57.7943 41.2746C56.8095 43.5052 55.7797 45.811 55.6027 46.9965ZM61.6091 21.3605L53.7652 22.1876C53.5105 22.3459 53.234 22.4087 52.9358 22.3753L51.4027 22.4328C51.1759 24.0753 50.7954 25.6821 50.2611 27.2524C49.7267 28.8228 49.048 30.3287 48.2255 31.7695C48.4259 32.0286 48.6667 32.2428 48.9486 32.4111C49.2297 32.5787 49.5326 32.6897 49.8564 32.7424C50.7325 32.9286 53.5159 32.9612 55.5367 32.9612C55.525 32.9007 55.5312 32.8417 55.5545 32.7843C56.1875 31.2334 56.297 29.8686 55.8566 29.04C55.7409 28.8204 55.5825 28.6381 55.3806 28.4922C55.1794 28.3472 54.9565 28.2541 54.7111 28.2129C51.8493 27.6008 51.1223 30.2185 51.0936 30.3303C51.0851 30.3722 51.068 30.4109 51.0431 30.4459C51.0175 30.4808 50.9872 30.5095 50.9499 30.532C50.9134 30.5545 50.8738 30.5692 50.8311 30.5754C50.7884 30.5816 50.7465 30.5793 50.7045 30.5677C50.6626 30.5568 50.6253 30.5382 50.5911 30.5118C50.557 30.4847 50.5298 30.4528 50.5096 30.4148C50.4886 30.3776 50.4762 30.3372 50.4715 30.2938C50.4676 30.2511 50.4723 30.2092 50.4855 30.1681C50.4855 30.1355 51.398 26.8637 54.8431 27.5984C55.0078 27.6295 55.167 27.6791 55.3208 27.7466C55.4745 27.8134 55.619 27.8972 55.7541 27.9972C55.8892 28.0965 56.0112 28.2106 56.1207 28.3378C56.2302 28.4651 56.3234 28.6024 56.4018 28.7514C56.9322 29.7484 56.8398 31.2442 56.1502 32.9659C56.9276 32.9659 57.5124 32.9659 57.698 32.9659C57.9916 32.8301 59.6691 31.9464 61.0988 28.9981C61.1804 28.5171 61.7885 24.3903 61.6091 21.3605ZM52.9264 21.7477H52.9598C53.3101 21.7655 53.4149 21.6848 53.4258 21.6623V17.8591C47.9669 14.834 41.6491 13.9968 38.7259 13.778C39.0366 14.0372 39.289 14.3429 39.4847 14.6966C39.6796 15.0504 39.8039 15.4275 39.8582 15.8271C40.544 20.9485 40.5968 26.077 40.0182 31.2116C39.6283 34.582 38.7655 36.8979 37.4538 38.1052C39.1771 37.8864 40.916 36.8087 40.9354 36.7932H40.9595C43.1231 35.6643 43.3685 32.1543 43.3685 32.1194L43.8066 24.7642C43.857 22.1154 46.3484 22.0037 46.3725 22.0037L52.9264 21.7477ZM62.9169 19.9717L62.5946 15.09L50.9429 15.9652C51.9588 16.3857 52.9451 16.8652 53.9034 17.4044C53.9531 17.4323 53.992 17.4704 54.0207 17.5192C54.0494 17.5681 54.0634 17.6209 54.0634 17.6775V21.5273L61.8786 20.7026C62.9169 20.5428 62.9169 19.9787 62.9169 19.9717ZM41.1195 4.57864C40.7451 4.5639 40.3599 4.55924 39.9677 4.57864C37.8017 5.00536 32.9711 6.64553 28.4124 12.9773C30.7663 12.9494 33.2709 12.9773 35.8571 13.0565C35.9122 13.0565 35.9689 13.0565 36.0302 13.0712C36.33 13.0456 36.629 13.0503 36.928 13.0844C36.9661 13.0697 37.0057 13.0619 37.0461 13.0627C41.3423 13.2155 45.5159 14.0085 49.5675 15.4423L59.2272 14.716C55.723 8.7101 48.9921 4.93321 41.1195 4.57864ZM23.0009 13.1216C24.5689 13.0541 26.2534 13.0037 28.0248 12.9773C31.2346 8.4432 34.5764 6.27622 36.8364 5.24821C37.3334 5.02941 37.7978 4.84321 38.2265 4.69735C32.8135 5.36226 26.4258 8.3276 23.0009 13.1216ZM8.72578 15.547C10.6114 15.2475 14.1458 14.7448 17.9233 14.526C22.8347 14.2397 30.0541 14.0884 30.4883 14.0884C30.736 14.069 30.983 14.0736 31.2299 14.1047C31.4769 14.1349 31.7177 14.19 31.953 14.2691C32.1883 14.3491 32.4135 14.4515 32.6286 14.5764C32.843 14.7021 33.0426 14.8479 33.2274 15.014C35.0144 16.5207 35.9207 19.5605 35.9207 24.0489C35.9207 28.9702 35.3802 32.609 34.3178 34.8706C33.865 35.8327 33.4029 36.3447 33.0612 36.6202L35.4959 36.7389C36.5141 35.7962 37.1626 33.007 37.3288 31.9859C38.6669 23.7401 37.5765 15.4989 37.5656 15.4182C37.401 14.0643 36.4178 13.7648 36.0194 13.6989C35.9976 13.7012 35.9759 13.7012 35.9534 13.6989H35.8555C27.5643 13.4079 19.2987 13.74 11.058 14.6966C10.2122 14.7936 9.43484 15.0776 8.72578 15.547ZM8.72578 35.4502L11.1038 33.3072C11.1659 33.2506 11.2389 33.2234 11.3228 33.2258L23.5507 33.5012C23.5934 33.5035 23.6346 33.5128 23.6734 33.5299C25.4402 34.3461 27.1472 35.2717 28.7952 36.3052H32.3995C32.6776 36.1787 35.2839 34.7131 35.2839 24.0574C35.2839 18.7102 33.9411 16.4532 32.8158 15.5035C31.6905 14.5547 30.5714 14.7207 30.5605 14.723H30.5147C30.4401 14.723 22.9815 14.865 17.9536 15.1606C14.4169 15.3771 10.9027 15.7914 7.41174 16.4028H7.38999C7.37679 16.4028 5.86859 16.6216 5.81112 18.1523C5.50047 22.9603 5.596 27.7606 6.09847 32.5523C6.1008 32.564 6.1008 32.5756 6.09847 32.5872C6.09847 32.6904 6.19011 35.3144 8.72578 35.4571V35.4502ZM23.4699 34.1382L11.4261 33.8643L9.60181 35.4983L27.7095 36.3626C25.8697 35.2531 23.8357 34.3042 23.4614 34.1359L23.4699 34.1382ZM36.2974 38.1447C36.452 38.0679 36.598 37.9779 36.7354 37.874C37.6643 37.178 38.875 35.4463 39.3744 31.1372C39.946 26.0615 39.8939 20.9928 39.2191 15.9303C39 14.6439 38.2359 14.0798 37.5237 13.8416C37.7101 14.0504 37.8592 14.2823 37.9718 14.5384C38.0836 14.7944 38.1535 15.0613 38.1807 15.3398C38.1807 15.4182 39.2928 23.7494 37.9423 32.0884C37.9136 32.2528 37.2674 36.1197 35.7942 37.3053C35.7359 37.351 35.6707 37.3743 35.5969 37.3751H35.5814L8.8182 36.0864H8.66055C9.05429 36.9615 10.8941 37.0314 10.9159 37.0314L35.2575 38.3441H35.2987C35.6489 38.3752 35.979 38.3084 36.2889 38.1424L36.2974 38.1447ZM47.7697 22.5662L46.3904 22.6143C46.3112 22.6143 44.4698 22.7144 44.4302 24.7704L43.9813 32.1497C43.9813 32.2769 43.8066 34.7348 42.449 36.3603C45.2495 34.4509 47.1655 26.2446 47.7611 22.5639L47.7697 22.5662ZM45.8273 34.118C49.6157 29.5606 50.5725 23.9108 50.7635 22.4607L48.4026 22.546C48.2644 23.4034 47.1476 30.0153 44.9715 34.118H45.8273ZM48.8585 35.6232H59.3584C62.3935 33.405 63.3805 30.691 63.9855 27.0383C64.4033 24.5082 64.4888 21.3233 64.248 17.3035C64.1144 15.0877 63.8908 13.2528 62.5247 13.2528H62.4851C62.3267 13.2411 62.1737 13.2644 62.0269 13.3241C61.8793 13.3831 61.7527 13.4716 61.6463 13.5895C61.5594 13.733 61.5003 13.8866 61.4708 14.0519C61.4405 14.2164 61.4421 14.3809 61.4732 14.5454L62.8532 14.4406C62.9402 14.4344 63.0171 14.4592 63.0831 14.5174C63.1491 14.5756 63.1848 14.6485 63.1903 14.7362L63.5452 19.9415C63.5452 19.9896 63.5801 20.954 62.2311 21.2752C62.4369 24.5563 61.752 28.95 61.7209 29.1494C61.7162 29.1789 61.7077 29.2076 61.6945 29.2347C60.017 32.7339 57.9721 33.5478 57.8821 33.5803C57.8479 33.592 57.8129 33.599 57.7772 33.5997C57.6832 33.5997 56.8398 33.6106 55.723 33.6106C53.6666 33.6106 50.6867 33.5734 49.7205 33.3701C49.3664 33.3049 49.0309 33.1854 48.7148 33.0116C48.3995 32.8378 48.1191 32.6183 47.8753 32.3529C47.4839 32.9783 47.0606 33.5803 46.6047 34.1599C46.9053 34.5028 47.247 34.7977 47.6299 35.0452C48.0127 35.2927 48.422 35.4828 48.8585 35.6162V35.6232Z" fill="url(#paint0_linear_10586_600)"/>
<defs>
<linearGradient id="paint0_linear_10586_600" x1="5" y1="35.9355" x2="65" y2="35.9355" gradientUnits="userSpaceOnUse">
<stop stop-color="#0CBAF1"/>
<stop offset="1" stop-color="#E95CE9"/>
</linearGradient>
</defs>
</svg>
