<svg width="46" height="47" viewBox="0 0 46 47" fill="none" xmlns="http://www.w3.org/2000/svg">
<circle cx="23" cy="23.2588" r="22.5" fill="#18181B" stroke="url(#paint0_linear_10429_1895)"/>
<path d="M33.2009 18.302C32.5125 18.608 31.7859 18.7992 31.021 18.9139C31.7859 18.455 32.3978 17.7284 32.6655 16.8488C31.9389 17.2694 31.1357 17.5754 30.2561 17.7666C29.5677 17.04 28.5734 16.5811 27.5025 16.5811C25.4374 16.5811 23.7546 18.2638 23.7546 20.329C23.7546 20.6349 23.7929 20.9026 23.8694 21.1703C20.7716 21.0174 17.9798 19.5258 16.1058 17.2312C15.7999 17.8049 15.6086 18.4168 15.6086 19.1052C15.6086 20.4055 16.2588 21.5528 17.2914 22.2412C16.6795 22.2029 16.1058 22.05 15.5704 21.7823V21.8205C15.5704 23.6562 16.8707 25.186 18.5917 25.5302C18.2857 25.6067 17.9415 25.6449 17.5973 25.6449C17.3679 25.6449 17.1002 25.6067 16.8707 25.5684C17.3679 27.0599 18.7446 28.169 20.3891 28.169C19.0888 29.1634 17.4826 29.7753 15.7234 29.7753C15.4174 29.7753 15.1115 29.7753 14.8438 29.737C16.5265 30.8079 18.4769 31.4198 20.6186 31.4198C27.5408 31.4198 31.327 25.6831 31.327 20.7114C31.327 20.5584 31.327 20.3672 31.327 20.2142C32.0536 19.7171 32.7037 19.0669 33.2009 18.302Z" fill="white"/>
<defs>
<linearGradient id="paint0_linear_10429_1895" x1="0" y1="23.2588" x2="46" y2="23.2588" gradientUnits="userSpaceOnUse">
<stop stop-color="#0CBAF1"/>
<stop offset="1" stop-color="#E95CE9"/>
</linearGradient>
</defs>
</svg>
