<svg width="46" height="47" viewBox="0 0 46 47" fill="none" xmlns="http://www.w3.org/2000/svg">
<circle cx="23" cy="23.2588" r="22.5" fill="#18181B" stroke="url(#paint0_linear_10429_1905)"/>
<path d="M22.9962 14.1352C25.9677 14.1352 26.3196 14.1464 27.4934 14.1999C28.1992 14.2085 28.8983 14.3381 29.5602 14.583C30.0403 14.7682 30.4762 15.0518 30.8401 15.4156C31.2039 15.7794 31.4875 16.2154 31.6726 16.6954C31.9175 17.3574 32.0471 18.0565 32.0558 18.7623C32.1088 19.9361 32.1204 20.288 32.1204 23.2594C32.1204 26.2309 32.1093 26.5828 32.0558 27.7566C32.0471 28.4624 31.9175 29.1615 31.6726 29.8235C31.4875 30.3035 31.2039 30.7395 30.8401 31.1033C30.4762 31.4671 30.0403 31.7507 29.5602 31.9358C28.8983 32.1808 28.1992 32.3104 27.4934 32.319C26.3201 32.372 25.9682 32.3837 22.9962 32.3837C20.0242 32.3837 19.6723 32.3725 18.499 32.319C17.7933 32.3104 17.0942 32.1808 16.4322 31.9358C15.9522 31.7507 15.5162 31.4671 15.1524 31.1033C14.7886 30.7395 14.5049 30.3035 14.3198 29.8235C14.0749 29.1615 13.9453 28.4624 13.9367 27.7566C13.8837 26.5828 13.872 26.2309 13.872 23.2594C13.872 20.288 13.8831 19.9361 13.9367 18.7623C13.9453 18.0565 14.0749 17.3574 14.3198 16.6954C14.5049 16.2154 14.7886 15.7794 15.1524 15.4156C15.5162 15.0518 15.9522 14.7682 16.4322 14.583C17.0942 14.3381 17.7933 14.2085 18.499 14.1999C19.6729 14.1469 20.0248 14.1352 22.9962 14.1352ZM22.9962 12.1299C19.9755 12.1299 19.595 12.1426 18.4079 12.1967C17.4842 12.215 16.5703 12.3899 15.7051 12.7139C14.9629 12.9935 14.2907 13.4317 13.7353 13.998C13.1685 14.5536 12.7299 15.2262 12.4501 15.9689C12.1262 16.8341 11.9513 17.7479 11.9329 18.6716C11.8799 19.8577 11.8672 20.2382 11.8672 23.2589C11.8672 26.2796 11.8799 26.6602 11.934 27.8473C11.9523 28.7709 12.1272 29.6848 12.4512 30.55C12.7307 31.2926 13.1689 31.9652 13.7353 32.5209C14.291 33.0873 14.9636 33.5255 15.7062 33.805C16.5714 34.129 17.4853 34.3039 18.4089 34.3222C19.596 34.3752 19.975 34.389 22.9973 34.389C26.0196 34.389 26.3985 34.3763 27.5856 34.3222C28.5093 34.3039 29.4232 34.129 30.2884 33.805C31.0274 33.5185 31.6986 33.081 32.2589 32.5203C32.8192 31.9596 33.2563 31.2882 33.5423 30.549C33.8663 29.6838 34.0412 28.7699 34.0595 27.8462C34.1125 26.6602 34.1252 26.2796 34.1252 23.2589C34.1252 20.2382 34.1125 19.8577 34.0585 18.6706C34.0401 17.7469 33.8652 16.833 33.5412 15.9678C33.2617 15.2252 32.8235 14.5526 32.2572 13.9969C31.7015 13.4306 31.0288 12.9923 30.2863 12.7128C29.4211 12.3889 28.5072 12.214 27.5835 12.1956C26.3975 12.1426 26.017 12.1299 22.9962 12.1299Z" fill="white"/>
<path d="M23.0002 17.5439C21.8699 17.5439 20.7649 17.8791 19.8251 18.5071C18.8853 19.1351 18.1527 20.0276 17.7202 21.0719C17.2876 22.1162 17.1745 23.2653 17.395 24.3739C17.6155 25.4825 18.1598 26.5008 18.9591 27.3001C19.7583 28.0994 20.7766 28.6437 21.8852 28.8642C22.9938 29.0847 24.1429 28.9715 25.1872 28.539C26.2315 28.1064 27.1241 27.3739 27.752 26.4341C28.38 25.4942 28.7152 24.3893 28.7152 23.259C28.7152 21.7432 28.1131 20.2896 27.0413 19.2178C25.9695 18.1461 24.5159 17.5439 23.0002 17.5439ZM23.0002 26.9686C22.2665 26.9686 21.5492 26.7511 20.9392 26.3435C20.3291 25.9358 19.8537 25.3565 19.5729 24.6786C19.2921 24.0007 19.2186 23.2549 19.3618 22.5352C19.5049 21.8156 19.8582 21.1546 20.377 20.6358C20.8959 20.117 21.5569 19.7637 22.2765 19.6206C22.9961 19.4774 23.742 19.5509 24.4198 19.8317C25.0977 20.1124 25.677 20.5879 26.0847 21.198C26.4923 21.808 26.7099 22.5253 26.7099 23.259C26.7099 24.2428 26.319 25.1864 25.6233 25.8821C24.9276 26.5778 23.984 26.9686 23.0002 26.9686Z" fill="white"/>
<path d="M28.937 18.6534C29.6746 18.6534 30.2725 18.0555 30.2725 17.3179C30.2725 16.5803 29.6746 15.9824 28.937 15.9824C28.1995 15.9824 27.6016 16.5803 27.6016 17.3179C27.6016 18.0555 28.1995 18.6534 28.937 18.6534Z" fill="white"/>
<defs>
<linearGradient id="paint0_linear_10429_1905" x1="0" y1="23.2588" x2="46" y2="23.2588" gradientUnits="userSpaceOnUse">
<stop stop-color="#0CBAF1"/>
<stop offset="1" stop-color="#E95CE9"/>
</linearGradient>
</defs>
</svg>
