<svg width="46" height="47" viewBox="0 0 46 47" fill="none" xmlns="http://www.w3.org/2000/svg">
<circle cx="23" cy="23.2588" r="22.5" fill="#18181B" stroke="url(#paint0_linear_10429_1912)"/>
<path fill-rule="evenodd" clip-rule="evenodd" d="M24.001 12.1299C18.1016 12.1299 13.3555 16.876 13.3555 22.7754C13.3555 27.4772 16.4161 31.4693 20.6299 32.8887C21.1622 32.9774 21.3396 32.6669 21.3396 32.3564C21.3396 32.0903 21.3396 31.4249 21.3396 30.5378C18.3677 31.2031 17.7468 29.1184 17.7468 29.1184C17.2588 27.8764 16.5491 27.5659 16.5491 27.5659C15.5733 26.9006 16.6378 26.9006 16.6378 26.9006C17.7024 26.9893 18.279 28.0095 18.279 28.0095C19.2105 29.6507 20.763 29.1628 21.384 28.8966C21.4727 28.1869 21.7388 27.7433 22.0493 27.4772C19.6984 27.2111 17.2145 26.2796 17.2145 22.1988C17.2145 21.0455 17.6137 20.0697 18.3234 19.36C18.2347 19.0938 17.8355 18.0293 18.4121 16.5212C18.4121 16.5212 19.2992 16.255 21.3396 17.6301C22.1824 17.4083 23.1139 17.2752 24.001 17.2752C24.8881 17.2752 25.8196 17.4083 26.6624 17.6301C28.7028 16.255 29.5899 16.5212 29.5899 16.5212C30.1665 17.9849 29.8117 19.0495 29.6786 19.36C30.344 20.114 30.7875 21.0455 30.7875 22.1988C30.7875 26.2796 28.3036 27.1667 25.9083 27.4328C26.3075 27.7433 26.618 28.4087 26.618 29.3845C26.618 30.8039 26.618 31.9572 26.618 32.3121C26.618 32.5782 26.7955 32.933 27.3721 32.8443C31.586 31.4693 34.6465 27.4772 34.6465 22.7754C34.6465 16.876 29.9004 12.1299 24.001 12.1299Z" fill="white"/>
<defs>
<linearGradient id="paint0_linear_10429_1912" x1="0" y1="23.2588" x2="46" y2="23.2588" gradientUnits="userSpaceOnUse">
<stop stop-color="#0CBAF1"/>
<stop offset="1" stop-color="#E95CE9"/>
</linearGradient>
</defs>
</svg>
