<svg width="20" height="21" viewBox="0 0 20 21" fill="none" xmlns="http://www.w3.org/2000/svg">
<path fill-rule="evenodd" clip-rule="evenodd" d="M5.54699 1.92623C6.47782 1.93873 7.14116 2.63623 7.98032 3.51873C8.18782 3.73623 8.41199 3.97373 8.66282 4.22373C9.87866 5.4404 9.53282 6.4329 9.25366 7.22956C8.95032 8.09873 8.68782 8.84873 10.2595 10.4204C11.8312 11.9921 12.5803 11.7296 13.4487 11.4237C14.2462 11.1454 15.2362 10.7971 16.4545 12.0137C16.702 12.2612 16.9353 12.4829 17.152 12.6887C18.0378 13.5321 18.7378 14.1979 18.7496 15.1312C18.7587 15.9262 18.2753 16.7379 17.082 17.9312L16.5537 17.5729L17.0012 18.0087C16.737 18.2796 16.0345 19.0012 14.6587 19.0096H14.6337C12.557 19.0096 9.84949 17.3562 6.58616 14.0937C3.30949 10.8179 1.65366 8.10206 1.66609 6.02123C1.67366 4.64623 2.39449 3.94206 2.66532 3.6779L2.68844 3.65265L2.74449 3.59623C3.94032 2.4004 4.76199 1.90873 5.54699 1.92623ZM5.53116 3.17623H5.52449C5.15027 3.17623 4.58196 3.55123 3.78934 4.32114L3.63018 4.47745L3.63199 4.47706C3.63199 4.47706 3.61839 4.49266 3.59521 4.5163L3.53949 4.57206C3.33782 4.7679 2.92032 5.1754 2.91611 6.0279C2.90949 7.2204 3.69366 9.43456 7.46949 13.2096C11.227 16.9662 13.4378 17.7596 14.6337 17.7596H14.6512C15.5037 17.7546 15.9103 17.3371 16.1062 17.1362C16.1653 17.0754 16.2137 17.0296 16.2478 17.0021C17.0787 16.1662 17.5037 15.5454 17.4995 15.1462C17.4945 14.7396 16.9887 14.2596 16.2895 13.5937C16.067 13.3829 15.8253 13.1521 15.5703 12.8971C14.9087 12.2379 14.5828 12.3504 13.862 12.6037C12.8662 12.9529 11.502 13.4312 9.37616 11.3037C7.24949 9.1779 7.72616 7.81373 8.07366 6.81706C8.32532 6.09706 8.44032 5.76956 7.77949 5.1079C7.52116 4.84956 7.28866 4.60456 7.07449 4.37956C6.41282 3.68456 5.93532 3.18206 5.53116 3.17623ZM12.7046 4.89081C14.4387 5.22748 15.7779 6.56581 16.1154 8.30081C16.1812 8.64081 15.9604 8.96831 15.6221 9.03415C15.5812 9.04165 15.5412 9.04581 15.5012 9.04581C15.2079 9.04581 14.9471 8.83915 14.8887 8.54081C14.6487 7.30748 13.6979 6.35665 12.4662 6.11748C12.1271 6.05165 11.9062 5.72415 11.9721 5.38498C12.0379 5.04581 12.3712 4.82415 12.7046 4.89081ZM12.6547 1.93098C16.053 2.30848 18.6922 4.94431 19.073 8.34181C19.1113 8.68515 18.8647 8.99431 18.5222 9.03265C18.4988 9.03515 18.4747 9.03681 18.4513 9.03681C18.1372 9.03681 17.8672 8.80098 17.8313 8.48181C17.5155 5.66848 15.3305 3.48515 12.5163 3.17265C12.1738 3.13431 11.9263 2.82598 11.9647 2.48265C12.0022 2.14015 12.308 1.88765 12.6547 1.93098Z" fill="#B0B0B2"/>
</svg>
