<svg width="20" height="21" viewBox="0 0 20 21" fill="none" xmlns="http://www.w3.org/2000/svg">
<path fill-rule="evenodd" clip-rule="evenodd" d="M10.207 1.92578C13.9979 1.92578 17.082 5.03328 17.082 8.85328C17.082 13.5491 11.702 18.1758 10.207 18.1758C8.71203 18.1758 3.33203 13.5491 3.33203 8.85328C3.33203 5.03328 6.4162 1.92578 10.207 1.92578ZM10.207 3.17578C7.10536 3.17578 4.58203 5.72328 4.58203 8.85328C4.58203 12.8358 9.2687 16.7158 10.207 16.9224C11.1454 16.7149 15.832 12.8349 15.832 8.85328C15.832 5.72328 13.3087 3.17578 10.207 3.17578ZM10.2079 6.09245C11.7012 6.09245 12.9162 7.30745 12.9162 8.80161C12.9162 10.2949 11.7012 11.5091 10.2079 11.5091C8.71453 11.5091 7.49953 10.2949 7.49953 8.80161C7.49953 7.30745 8.71453 6.09245 10.2079 6.09245ZM10.2079 7.34245C9.4037 7.34245 8.74953 7.99661 8.74953 8.80161C8.74953 9.60578 9.4037 10.2591 10.2079 10.2591C11.012 10.2591 11.6662 9.60578 11.6662 8.80161C11.6662 7.99661 11.012 7.34245 10.2079 7.34245Z" fill="#B0B0B2"/>
</svg>
