<svg width="24" height="25" viewBox="0 0 24 25" fill="none" xmlns="http://www.w3.org/2000/svg">
<path fill-rule="evenodd" clip-rule="evenodd" d="M16.659 2.25879C19.989 2.25879 22.5 4.97579 22.5 8.57879V15.4468C22.5 17.2908 21.848 18.9568 20.663 20.1388C19.6 21.1978 18.221 21.7588 16.675 21.7588H6.822C5.279 21.7588 3.901 21.1988 2.837 20.1388C1.652 18.9568 1 17.2908 1 15.4468V8.57879C1 4.97579 3.511 2.25879 6.841 2.25879H16.659ZM16.659 3.75879H6.841C4.326 3.75879 2.5 5.78579 2.5 8.57879V15.4468C2.5 16.8898 2.996 18.1788 3.896 19.0758C4.672 19.8508 5.685 20.2588 6.825 20.2588H16.659C16.661 20.2568 16.669 20.2588 16.675 20.2588C17.816 20.2588 18.828 19.8508 19.604 19.0758C20.505 18.1788 21 16.8898 21 15.4468V8.57879C21 5.78579 19.174 3.75879 16.659 3.75879ZM18.235 8.38759C18.496 8.70859 18.447 9.18059 18.126 9.44259L13.682 13.0546C13.12 13.5006 12.448 13.7236 11.777 13.7236C11.108 13.7236 10.441 13.5026 9.883 13.0606L5.398 9.44459C5.075 9.18459 5.025 8.71159 5.284 8.38959C5.545 8.06859 6.017 8.01759 6.339 8.27659L10.82 11.8886C11.383 12.3346 12.176 12.3346 12.743 11.8846L17.179 8.27859C17.501 8.01559 17.973 8.06559 18.235 8.38759Z" fill="white"/>
</svg>
