<svg width="17" height="17" viewBox="0 0 17 17" fill="none" xmlns="http://www.w3.org/2000/svg">
<path d="M14.9569 2.64678C14.6234 2.30452 14.1299 2.17701 13.6697 2.31123L2.93866 5.4318C2.45313 5.56669 2.10899 5.95391 2.01629 6.44582C1.92158 6.94646 2.25238 7.58198 2.68456 7.84773L6.03993 9.91C6.38407 10.1214 6.82826 10.0684 7.11304 9.78115L10.9553 5.91499C11.1487 5.71366 11.4688 5.71366 11.6622 5.91499C11.8556 6.10961 11.8556 6.42502 11.6622 6.62635L7.81333 10.4932C7.52788 10.7797 7.47452 11.226 7.68461 11.5723L9.73478 14.9613C9.97488 15.364 10.3884 15.5921 10.8419 15.5921C10.8953 15.5921 10.9553 15.5921 11.0086 15.5854C11.5288 15.5183 11.9423 15.1626 12.0957 14.6593L15.277 3.94198C15.4171 3.48564 15.2904 2.98903 14.9569 2.64678Z" fill="white"/>
</svg>
