<svg width="20" height="20" viewBox="0 0 20 20" fill="none" xmlns="http://www.w3.org/2000/svg">
<path fill-rule="evenodd" clip-rule="evenodd" d="M10.207 1.66699C13.9979 1.66699 17.082 4.77449 17.082 8.59449C17.082 13.2903 11.702 17.917 10.207 17.917C8.71203 17.917 3.33203 13.2903 3.33203 8.59449C3.33203 4.77449 6.4162 1.66699 10.207 1.66699ZM10.207 2.91699C7.10536 2.91699 4.58203 5.46449 4.58203 8.59449C4.58203 12.577 9.2687 16.457 10.207 16.6637C11.1454 16.4562 15.832 12.5762 15.832 8.59449C15.832 5.46449 13.3087 2.91699 10.207 2.91699ZM10.2079 5.83366C11.7012 5.83366 12.9162 7.04866 12.9162 8.54283C12.9162 10.0362 11.7012 11.2503 10.2079 11.2503C8.71453 11.2503 7.49953 10.0362 7.49953 8.54283C7.49953 7.04866 8.71453 5.83366 10.2079 5.83366ZM10.2079 7.08366C9.4037 7.08366 8.74953 7.73783 8.74953 8.54283C8.74953 9.34699 9.4037 10.0003 10.2079 10.0003C11.012 10.0003 11.6662 9.34699 11.6662 8.54283C11.6662 7.73783 11.012 7.08366 10.2079 7.08366Z" fill="#B0B0B2"/>
</svg>
